<svg xmlns="http://www.w3.org/2000/svg" viewBox="0 0 130.81 124"><defs><style>.cls-1,.cls-2,.cls-5,.cls-6{fill:none;stroke-miterlimit:10;}.cls-1,.cls-2{stroke:#ff564d;}.cls-1,.cls-5{stroke-width:2px;}.cls-2,.cls-6{stroke-width:4px;}.cls-3{fill:#ffc44d;}.cls-4{fill:#fb3;}.cls-5,.cls-6{stroke:#fffefa;}.cls-7{fill:#ff564d;}</style></defs><title>i_star_adv</title><g id="Слой_2" data-name="Слой 2"><g id="Слой_3" data-name="Слой 3"><circle class="cls-1" cx="100.5" cy="11.5" r="10.5"/><circle class="cls-2" cx="108" cy="105" r="8"/><circle class="cls-1" cx="10" cy="77" r="9"/><circle class="cls-3" cx="68.5" cy="118.5" r="5.5"/><circle class="cls-3" cx="38" cy="20" r="4"/><polygon class="cls-4" points="65 0.17 84.78 40.24 129 46.67 97 77.86 104.55 121.9 65 101.11 25.45 121.9 33 77.86 1 46.67 45.22 40.24 65 0.17"/><path class="cls-2" d="M4.18,14.18c4.33,1.33,2,9,6.31,10.31s6.69-6.31,11-5,2,9,6.32,10.31"/><path class="cls-2" d="M103.26,58.51c4.53-.17,4.82,7.83,9.35,7.66s4.24-8.16,8.77-8.33,4.83,7.83,9.36,7.66"/><circle class="cls-5" cx="54" cy="105" r="9"/><line class="cls-5" x1="25.19" y1="50.99" x2="63.19" y2="47.99"/><line class="cls-6" x1="69" y1="71" x2="90" y2="79"/><circle class="cls-7" cx="52.5" cy="82.5" r="5.5"/><circle class="cls-7" cx="81" cy="53" r="7"/></g></g></svg>