<svg width="0" height="0" style="position:absolute"><symbol viewBox="0 0 20 21" id="i_cake" xmlns="http://www.w3.org/2000/svg"><defs><style>.acls-1{fill:none;stroke:#fb3;stroke-miterlimit:10;stroke-width:2px}</style></defs><title>i_cake</title><g id="aСлой_2" data-name="Слой 2"><g id="aСлой_3" data-name="Слой 3"><path class="acls-1" d="M0 20h20m-3 0v-8a2 2 0 0 0-2-2H5a2 2 0 0 0-2 2v8"/><path class="acls-1" d="M3 13.92a8.88 8.88 0 0 1 7 .08c2 1 6 0 7-1M5 10V6a2.29 2.29 0 0 1 2.5-2h5A2.29 2.29 0 0 1 15 6v4m-5-6V0"/></g></g></symbol><symbol viewBox="0 0 22 24" id="i_cart" xmlns="http://www.w3.org/2000/svg"><defs><style>.bcls-1{fill:#fb3}.bcls-2,.bcls-3{fill:#ffc44d;stroke:#fff7e6;stroke-miterlimit:10;stroke-width:2px}.bcls-3{fill:none}</style></defs><title>i_cart</title><g id="bСлой_2" data-name="Слой 2"><g id="bСлой_3" data-name="Слой 3"><path class="bcls-1" d="M0 0h22v24H0z"/><path class="bcls-2" d="M22 4H0"/><path class="bcls-3" d="M16 8A5 5 0 0 1 6 8"/></g></g></symbol><symbol viewBox="0 0 15.41 15.41" id="i_cross" xmlns="http://www.w3.org/2000/svg"><defs><style>.ccls-1{fill:none;stroke:#fb3;stroke-miterlimit:10;stroke-width:2px}</style></defs><title>i_cross</title><g id="cСлой_2" data-name="Слой 2"><path class="ccls-1" d="M.71.71l14 14m0-14l-14 14" id="cСлой_3" data-name="Слой 3"/></g></symbol><symbol viewBox="0 0 19.21 19.21" id="i_dandruff" xmlns="http://www.w3.org/2000/svg"><defs><style>.dcls-1{fill:none;stroke:#fb3;stroke-miterlimit:10;stroke-width:2px}</style></defs><title>i_dandruff</title><g id="dСлой_2" data-name="Слой 2"><g id="dСлой_3" data-name="Слой 3"><circle class="dcls-1" cx="12.21" cy="7" r="6"/><path class="dcls-1" d="M8.21 11l-7.5 7.5"/></g></g></symbol><symbol viewBox="0 0 20.14 20.14" id="i_inventory" xmlns="http://www.w3.org/2000/svg"><defs><style>.ecls-1{fill:none;stroke:#fb3;stroke-miterlimit:10;stroke-width:2px}</style></defs><title>i_inventory</title><g id="eСлой_2" data-name="Слой 2"><g id="eСлой_3" data-name="Слой 3"><rect class="ecls-1" x="3.07" y="6.07" width="14" height="8" rx="1" ry="1" transform="rotate(-45 10.07 10.069)"/><path class="ecls-1" d="M13.61 3.71l2.12-2.12a2 2 0 0 1 2.83 0 2 2 0 0 1 0 2.83l-2.12 2.12m-9.9 9.9l-2.13 2.12a2 2 0 0 1-2.83 0 2 2 0 0 1 0-2.83l2.12-2.12"/></g></g></symbol><symbol viewBox="0 0 44 43.92" id="i_ok" xmlns="http://www.w3.org/2000/svg"><defs><style>.fcls-1{fill:#fb3}</style></defs><title>i_ok</title><g id="fСлой_2" data-name="Слой 2"><g id="fСлой_3" data-name="Слой 3"><path class="fcls-1" d="M22 18.2a3.79 3.79 0 1 0-3.82-3.75A3.76 3.76 0 0 0 22 18.2z"/><path class="fcls-1" d="M22 0a22 22 0 1 0 22 22A22 22 0 0 0 22 0zm0 6.68a7.73 7.73 0 1 1-7.77 7.72A7.74 7.74 0 0 1 22 6.68zm8.68 18.51a9.32 9.32 0 0 1-3.35 2.16 15.8 15.8 0 0 1-3.81.85l.41.44c1.76 1.77 3.53 3.53 5.29 5.3a1.74 1.74 0 0 1 .42 2.06 2.09 2.09 0 0 1-2 1.22 1.91 1.91 0 0 1-1.24-.63c-1.33-1.34-2.69-2.65-4-4-.38-.4-.56-.32-.9 0-1.34 1.38-2.7 2.73-4.07 4.08a1.71 1.71 0 0 1-2.06.37 2.08 2.08 0 0 1-1.2-1.91 1.91 1.91 0 0 1 .65-1.28l5.23-5.22.39-.42a11.92 11.92 0 0 1-6.35-2.26 8.39 8.39 0 0 1-.67-.55 1.79 1.79 0 0 1-.25-2.56 1.81 1.81 0 0 1 2.4-.54 3.72 3.72 0 0 1 .53.31 10.42 10.42 0 0 0 11.53.1 3.13 3.13 0 0 1 1.12-.58 1.76 1.76 0 0 1 2 .8 1.71 1.71 0 0 1-.04 2.26z"/></g></g></symbol><symbol viewBox="0 0 16 20" id="i_person" xmlns="http://www.w3.org/2000/svg"><defs><style>.gcls-1{fill:none;stroke:#d9d9d9;stroke-miterlimit:10;stroke-width:2px}</style></defs><title>i_person</title><g id="gСлой_2" data-name="Слой 2"><g id="gСлой_3" data-name="Слой 3"><path class="gcls-1" d="M15 19H1a7 7 0 0 1 14 0z"/><circle class="gcls-1" cx="8" cy="5" r="4"/></g></g></symbol><symbol viewBox="0 0 44 43.92" id="i_vk" xmlns="http://www.w3.org/2000/svg"><defs><style>.hcls-1{fill:#507299}</style></defs><title>i_vk</title><g id="hСлой_2" data-name="Слой 2"><path class="hcls-1" d="M22 0a22 22 0 1 0 22 22A22 22 0 0 0 22 0zm11.16 24.33a41.79 41.79 0 0 1 3 3 8.62 8.62 0 0 1 1.08 1.56c.42.81 0 1.7-.69 1.74h-4.47a3.49 3.49 0 0 1-2.87-1.17c-.62-.63-1.2-1.31-1.8-2a4.21 4.21 0 0 0-.81-.72.94.94 0 0 0-1.5.36 4.7 4.7 0 0 0-.47 2.1c0 1.06-.37 1.34-1.44 1.39a11.56 11.56 0 0 1-6.45-1.39 14.23 14.23 0 0 1-4.34-4.05 54.62 54.62 0 0 1-5.72-10.07c-.36-.8-.1-1.23.79-1.25h4.41a1.3 1.3 0 0 1 1.22.92 27.32 27.32 0 0 0 3 5.53 4.73 4.73 0 0 0 1.13 1.24.69.69 0 0 0 1.17-.34 3.77 3.77 0 0 0 .26-1.18 17.31 17.31 0 0 0-.07-4.07 1.7 1.7 0 0 0-1.45-1.55c-.43-.08-.37-.24-.16-.49a1.62 1.62 0 0 1 1.38-.69h5.09c.8.16 1 .52 1.09 1.32v5.65c0 .31.16 1.24.72 1.44s.75-.21 1-.5a17.56 17.56 0 0 0 2.87-4.4c.34-.7.64-1.42.93-2.14a1.1 1.1 0 0 1 1.15-.79h4.9a2.56 2.56 0 0 1 .43 0c.83.14 1.05.5.8 1.3a12.19 12.19 0 0 1-1.95 3.37c-.82 1.13-1.69 2.22-2.5 3.36s-.66 1.62.27 2.52z" id="hСлой_3" data-name="Слой 3"/></g></symbol></svg>