<svg width="0" height="0" style="position:absolute"><symbol viewBox="0 0 20 21" id="i_cake" xmlns="http://www.w3.org/2000/svg"><defs><style>.acls-1{fill:none;stroke:#fb3;stroke-miterlimit:10;stroke-width:2px}</style></defs><title>i_cake</title><g id="aСлой_2" data-name="Слой 2"><g id="aСлой_3" data-name="Слой 3"><path class="acls-1" d="M0 20h20m-3 0v-8a2 2 0 0 0-2-2H5a2 2 0 0 0-2 2v8"/><path class="acls-1" d="M3 13.92a8.88 8.88 0 0 1 7 .08c2 1 6 0 7-1M5 10V6a2.29 2.29 0 0 1 2.5-2h5A2.29 2.29 0 0 1 15 6v4m-5-6V0"/></g></g></symbol><symbol viewBox="0 0 216.49 100.6" id="i_cake_about" xmlns="http://www.w3.org/2000/svg"><defs><style>.bcls-1,.bcls-3,.bcls-5{fill:none}.bcls-1{stroke:#ff564d}.bcls-1,.bcls-3,.bcls-5,.bcls-6{stroke-miterlimit:10}.bcls-1,.bcls-5,.bcls-6{stroke-width:4px}.bcls-2{fill:#fb3}.bcls-3,.bcls-5,.bcls-6{stroke:#fb3}.bcls-3{stroke-width:2px}.bcls-4{fill:#ff564d}.bcls-6{fill:#fff}</style></defs><title>i_cake_about</title><g id="bСлой_2" data-name="Слой 2"><g id="bСлой_3" data-name="Слой 3"><circle class="bcls-1" cx="177.25" cy="74.59" r="9.25"/><circle class="bcls-2" cx="210.25" cy="48.59" r="6.25"/><circle class="bcls-3" cx="10.25" cy="54.59" r="9.25"/><circle class="bcls-4" cx="50.28" cy="25.6" r="6.93"/><path class="bcls-1" d="M30.75 77.33c5-1.44 7.24 6.25 12.27 4.81S45.86 73 50.9 71.56s7.24 6.25 12.28 4.81m98.49-48.06L186.41 8.9"/><path class="bcls-5" d="M85.99 70.39l15.03 27.83 40.29-11.75L139 54.92 85.99 70.39z"/><path class="bcls-5" d="M125.48 24.36c5.21 10-33.57 19-42.94 26.34S77.78 65.89 86 70.4"/><path class="bcls-5" d="M85.79 48.58C78.57 45 73.35 35 87 26.39c9.53-6 20.23-17.41 18.37-23.77 0 0 21.43 4.38 20 23.2m10.72 29.96c9.54-9.69 9.45-25.77-10.61-31.42M96.51 66.75l12.9 28.45m16.82-36.64l4.43 30.92m-19.22-26.51l8.66 29.69"/><circle class="bcls-6" cx="96.32" cy="19.06" r="6.63" transform="rotate(-16.27 96.326 19.052)"/><path class="bcls-6" d="M92.35 13.32C89 9.69 84.13 8.81 75 9.17"/></g></g></symbol><symbol viewBox="0 0 201.68 99.36" id="i_candy_about" xmlns="http://www.w3.org/2000/svg"><defs><style>.ccls-1,.ccls-4,.ccls-5{fill:none;stroke-miterlimit:10}.ccls-1,.ccls-5{stroke:#fb3}.ccls-1{stroke-width:2px}.ccls-2{fill:#ff564d}.ccls-3{fill:#fb3}.ccls-4{stroke:#ff564d}.ccls-4,.ccls-5{stroke-width:4px}</style></defs><title>i_candy_about</title><g id="cСлой_2" data-name="Слой 2"><g id="cСлой_3" data-name="Слой 3"><circle class="ccls-1" cx="13.74" cy="36.99" r="12.74" transform="rotate(-4.51 13.802 37.042)"/><circle class="ccls-2" cx="35.77" cy="73" r="6.93"/><circle class="ccls-3" cx="173.77" cy="11" r="6.93"/><circle class="ccls-4" cx="190.26" cy="50.51" r="9.42"/><path class="ccls-5" d="M143.92 71.33c3.71 1.29 1.1 8.85 4.81 10.13s6.33-6.27 10-5 1.1 8.85 4.81 10.13 6.33-6.27 10-5"/><path class="ccls-4" d="M44.34 16l30.4 8"/><path class="ccls-3" d="M159 22.84a8.3 8.3 0 0 0-6.34-2.38c-1.21 0-1.39-.05-1.8-.46s-.43-.58-.45-1.78a8.21 8.21 0 0 0-8.74-8.7c-1.21 0-1.39 0-1.8-.46s-.43-.58-.45-1.78A8.23 8.23 0 0 0 137 1a3.32 3.32 0 0 0-3.19-.85l-8.31 2.2a3.31 3.31 0 0 0-2.44 2.92L121.87 20a4.35 4.35 0 0 0-2.75 1.25L117 23.41a4.31 4.31 0 0 0-1.12 1.92 27 27 0 0 0-10.47 1.38C97.26 29.3 89.3 35.54 83 44.27a72.47 72.47 0 0 0-11.59 24.39 44.48 44.48 0 0 0-.89 4.82 2.47 2.47 0 0 0-1 1l-9.61 17.24a2.9 2.9 0 0 0 .48 3.41l3.42 3.41a2.9 2.9 0 0 0 2 .82 2.82 2.82 0 0 0 1.41-.36l17.32-9.53a2.47 2.47 0 0 0 1-1 45.18 45.18 0 0 0 4.87-.89c2-.51 4.14-1.14 6.22-1.88a1.87 1.87 0 1 0-1.25-3.52c-2 .7-3.94 1.3-5.85 1.77a39.46 39.46 0 0 1-5.26.91l-1.37-1.38L90 76.4a1.87 1.87 0 1 0-2.63-2.65l-7.13 7.1-2.1-2.09 3.54-3.52a1.87 1.87 0 0 0-2.63-2.65l-3.55 3.53-1.39-1.38a38.78 38.78 0 0 1 .91-5.2A68.64 68.64 0 0 1 86 46.47c5.88-8.1 13.18-13.85 20.55-16.21a22.72 22.72 0 0 1 10.09-1.09 4.37 4.37 0 0 0 .35.39l3.13 3.12a1.87 1.87 0 0 0 2.6-2.68l-3.13-3.12a.62.62 0 0 1 0-.87l2.17-2.16a.64.64 0 0 1 .89 0l12.74 12.68a.62.62 0 0 1 0 .87l-2.17 2.16a.64.64 0 0 1-.89 0l-4.13-4.11a1.87 1.87 0 0 0-2.63 2.65l4.13 4.11a4.33 4.33 0 0 0 .39.34 22.43 22.43 0 0 1-1.1 10c-2.37 7.32-8.15 14.57-16.28 20.43a70.6 70.6 0 0 1-10.05 6 1.87 1.87 0 0 0 1.65 3.35 74.32 74.32 0 0 0 10.59-6.35c8.78-6.32 15-14.24 17.65-22.3a26.66 26.66 0 0 0 1.39-10.43 4.33 4.33 0 0 0 1.93-1.11l2.13-2.05a4.31 4.31 0 0 0 1.3-3.09v-.05l14.7-.78a3.3 3.3 0 0 0 2.93-2.17l2.86-7.69a3.3 3.3 0 0 0-.79-3.47zM81.21 87.06l-13.67 7.51a1.84 1.84 0 0 1-2.18-.3l-.69-.68a1.84 1.84 0 0 1-.32-2.2l7.56-13.59zm72.32-54.61l-16.11.87-1.06-1.05 6.7-1.79a1.87 1.87 0 0 0-1-3.61l-8.8 2.35-.31-.31 5.38-5.36a1.87 1.87 0 0 0-2.63-2.65l-5.39 5.37L130 26l2.35-8.74a1.87 1.87 0 1 0-3.61-1L127 22.93l-1.47-1.46 1.26-15.59 7.8-2.09a4.69 4.69 0 0 1 1.13 3.58 5.46 5.46 0 0 0 1.55 4.35 5.5 5.5 0 0 0 4.36 1.54 4.68 4.68 0 0 1 3.78 1.29 4.62 4.62 0 0 1 1.3 3.75 5.38 5.38 0 0 0 5.92 5.9 4.77 4.77 0 0 1 3.58 1.1z"/></g></g></symbol><symbol viewBox="0 0 22 24" id="i_cart" xmlns="http://www.w3.org/2000/svg"><defs><style>.dcls-1{fill:#fb3}.dcls-2,.dcls-3{fill:#ffc44d;stroke:#fff7e6;stroke-miterlimit:10;stroke-width:2px}.dcls-3{fill:none}</style></defs><title>i_cart</title><g id="dСлой_2" data-name="Слой 2"><g id="dСлой_3" data-name="Слой 3"><path class="dcls-1" d="M0 0h22v24H0z"/><path class="dcls-2" d="M22 4H0"/><path class="dcls-3" d="M16 8A5 5 0 0 1 6 8"/></g></g></symbol><symbol viewBox="0 0 15.41 15.41" id="i_cross" xmlns="http://www.w3.org/2000/svg"><defs><style>.ecls-1{fill:none;stroke:#fb3;stroke-miterlimit:10;stroke-width:2px}</style></defs><title>i_cross</title><g id="eСлой_2" data-name="Слой 2"><path class="ecls-1" d="M.71.71l14 14m0-14l-14 14" id="eСлой_3" data-name="Слой 3"/></g></symbol><symbol viewBox="0 0 19.21 19.21" id="i_dandruff" xmlns="http://www.w3.org/2000/svg"><defs><style>.fcls-1{fill:none;stroke:#fb3;stroke-miterlimit:10;stroke-width:2px}</style></defs><title>i_dandruff</title><g id="fСлой_2" data-name="Слой 2"><g id="fСлой_3" data-name="Слой 3"><circle class="fcls-1" cx="12.21" cy="7" r="6"/><path class="fcls-1" d="M8.21 11l-7.5 7.5"/></g></g></symbol><symbol viewBox="0 0 20.14 20.14" id="i_inventory" xmlns="http://www.w3.org/2000/svg"><defs><style>.gcls-1{fill:none;stroke:#fb3;stroke-miterlimit:10;stroke-width:2px}</style></defs><title>i_inventory</title><g id="gСлой_2" data-name="Слой 2"><g id="gСлой_3" data-name="Слой 3"><rect class="gcls-1" x="3.07" y="6.07" width="14" height="8" rx="1" ry="1" transform="rotate(-45 10.07 10.069)"/><path class="gcls-1" d="M13.61 3.71l2.12-2.12a2 2 0 0 1 2.83 0 2 2 0 0 1 0 2.83l-2.12 2.12m-9.9 9.9l-2.13 2.12a2 2 0 0 1-2.83 0 2 2 0 0 1 0-2.83l2.12-2.12"/></g></g></symbol><symbol viewBox="0 0 8 2" id="i_minus" xmlns="http://www.w3.org/2000/svg"><defs><style>.hcls-1{fill:none;stroke:#d9d9d9;stroke-miterlimit:10;stroke-width:2px}</style></defs><title>i_minus</title><g id="hСлой_2" data-name="Слой 2"><path class="hcls-1" d="M8 1H0" id="hСлой_3" data-name="Слой 3"/></g></symbol><symbol viewBox="0 0 44 43.92" id="i_ok" xmlns="http://www.w3.org/2000/svg"><defs><style>.icls-1{fill:#fb3}</style></defs><title>i_ok</title><g id="iСлой_2" data-name="Слой 2"><g id="iСлой_3" data-name="Слой 3"><path class="icls-1" d="M22 18.2a3.79 3.79 0 1 0-3.82-3.75A3.76 3.76 0 0 0 22 18.2z"/><path class="icls-1" d="M22 0a22 22 0 1 0 22 22A22 22 0 0 0 22 0zm0 6.68a7.73 7.73 0 1 1-7.77 7.72A7.74 7.74 0 0 1 22 6.68zm8.68 18.51a9.32 9.32 0 0 1-3.35 2.16 15.8 15.8 0 0 1-3.81.85l.41.44c1.76 1.77 3.53 3.53 5.29 5.3a1.74 1.74 0 0 1 .42 2.06 2.09 2.09 0 0 1-2 1.22 1.91 1.91 0 0 1-1.24-.63c-1.33-1.34-2.69-2.65-4-4-.38-.4-.56-.32-.9 0-1.34 1.38-2.7 2.73-4.07 4.08a1.71 1.71 0 0 1-2.06.37 2.08 2.08 0 0 1-1.2-1.91 1.91 1.91 0 0 1 .65-1.28l5.23-5.22.39-.42a11.92 11.92 0 0 1-6.35-2.26 8.39 8.39 0 0 1-.67-.55 1.79 1.79 0 0 1-.25-2.56 1.81 1.81 0 0 1 2.4-.54 3.72 3.72 0 0 1 .53.31 10.42 10.42 0 0 0 11.53.1 3.13 3.13 0 0 1 1.12-.58 1.76 1.76 0 0 1 2 .8 1.71 1.71 0 0 1-.04 2.26z"/></g></g></symbol><symbol viewBox="0 0 18.38 30.57" id="i_ok_g" xmlns="http://www.w3.org/2000/svg"><defs><style>.jcls-1{fill:#e6e6e6}</style></defs><title>i_ok_g</title><g id="jСлой_2" data-name="Слой 2"><g id="jСлой_3" data-name="Слой 3"><path class="jcls-1" d="M14.55 20.67a15.73 15.73 0 0 1-3.81.86l.41.44 5.29 5.3a1.76 1.76 0 0 1 .4 2.06 2.09 2.09 0 0 1-2 1.21 1.87 1.87 0 0 1-1.24-.63c-1.33-1.33-2.69-2.65-4-4-.38-.39-.56-.32-.9 0C7.41 27.3 6 28.65 4.68 30a1.68 1.68 0 0 1-2.05.37 2.1 2.1 0 0 1-1.21-1.92 1.94 1.94 0 0 1 .65-1.28L7.29 22l.39-.42a11.92 11.92 0 0 1-6.34-2.26c-.23-.18-.46-.35-.67-.55a1.8 1.8 0 0 1-.25-2.56 1.82 1.82 0 0 1 2.4-.54 4.59 4.59 0 0 1 .53.31 10.4 10.4 0 0 0 11.53.02 3.12 3.12 0 0 1 1.12-.54 1.75 1.75 0 0 1 2 .8 1.7 1.7 0 0 1-.12 2.25 9.28 9.28 0 0 1-3.33 2.16z"/><path class="jcls-1" d="M9.22 0a7.74 7.74 0 1 0 7.71 7.84A7.76 7.76 0 0 0 9.22 0zm0 11.52A3.78 3.78 0 1 1 13 7.73a3.76 3.76 0 0 1-3.79 3.79z"/></g></g></symbol><symbol viewBox="0 0 16 20" id="i_person" xmlns="http://www.w3.org/2000/svg"><defs><style>.kcls-1{fill:none;stroke:#d9d9d9;stroke-miterlimit:10;stroke-width:2px}</style></defs><title>i_person</title><g id="kСлой_2" data-name="Слой 2"><g id="kСлой_3" data-name="Слой 3"><path class="kcls-1" d="M15 19H1a7 7 0 0 1 14 0z"/><circle class="kcls-1" cx="8" cy="5" r="4"/></g></g></symbol><symbol viewBox="0 0 8 8" id="i_plus" xmlns="http://www.w3.org/2000/svg"><defs><style>.lcls-1{fill:none;stroke:#d9d9d9;stroke-miterlimit:10;stroke-width:2px}</style></defs><title>i_plus</title><g id="lСлой_2" data-name="Слой 2"><path class="lcls-1" d="M4 0v8m4-4H0" id="lСлой_3" data-name="Слой 3"/></g></symbol><symbol viewBox="0 0 130.81 124" id="i_star_adv" xmlns="http://www.w3.org/2000/svg"><defs><style>.mcls-1,.mcls-2,.mcls-5,.mcls-6{fill:none;stroke-miterlimit:10}.mcls-1,.mcls-2{stroke:#ff564d}.mcls-1,.mcls-5{stroke-width:2px}.mcls-2,.mcls-6{stroke-width:4px}.mcls-3{fill:#ffc44d}.mcls-4{fill:#fb3}.mcls-5,.mcls-6{stroke:#fffefa}.mcls-7{fill:#ff564d}</style></defs><title>i_star_adv</title><g id="mСлой_2" data-name="Слой 2"><g id="mСлой_3" data-name="Слой 3"><circle class="mcls-1" cx="100.5" cy="11.5" r="10.5"/><circle class="mcls-2" cx="108" cy="105" r="8"/><circle class="mcls-1" cx="10" cy="77" r="9"/><circle class="mcls-3" cx="68.5" cy="118.5" r="5.5"/><circle class="mcls-3" cx="38" cy="20" r="4"/><path class="mcls-4" d="M65 .17l19.78 40.07L129 46.67 97 77.86l7.55 44.04L65 101.11 25.45 121.9 33 77.86 1 46.67l44.22-6.43L65 .17z"/><path class="mcls-2" d="M4.18 14.18c4.33 1.33 2 9 6.31 10.31s6.69-6.31 11-5 2 9 6.32 10.31m75.45 28.71c4.53-.17 4.82 7.83 9.35 7.66s4.24-8.16 8.77-8.33 4.83 7.83 9.36 7.66"/><circle class="mcls-5" cx="54" cy="105" r="9"/><path class="mcls-5" d="M25.19 50.99l38-3"/><path class="mcls-6" d="M69 71l21 8"/><circle class="mcls-7" cx="52.5" cy="82.5" r="5.5"/><circle class="mcls-7" cx="81" cy="53" r="7"/></g></g></symbol><symbol viewBox="0 0 44 43.92" id="i_vk" xmlns="http://www.w3.org/2000/svg"><defs><style>.ncls-1{fill:#507299}</style></defs><title>i_vk</title><g id="nСлой_2" data-name="Слой 2"><path class="ncls-1" d="M22 0a22 22 0 1 0 22 22A22 22 0 0 0 22 0zm11.16 24.33a41.79 41.79 0 0 1 3 3 8.62 8.62 0 0 1 1.08 1.56c.42.81 0 1.7-.69 1.74h-4.47a3.49 3.49 0 0 1-2.87-1.17c-.62-.63-1.2-1.31-1.8-2a4.21 4.21 0 0 0-.81-.72.94.94 0 0 0-1.5.36 4.7 4.7 0 0 0-.47 2.1c0 1.06-.37 1.34-1.44 1.39a11.56 11.56 0 0 1-6.45-1.39 14.23 14.23 0 0 1-4.34-4.05 54.62 54.62 0 0 1-5.72-10.07c-.36-.8-.1-1.23.79-1.25h4.41a1.3 1.3 0 0 1 1.22.92 27.32 27.32 0 0 0 3 5.53 4.73 4.73 0 0 0 1.13 1.24.69.69 0 0 0 1.17-.34 3.77 3.77 0 0 0 .26-1.18 17.31 17.31 0 0 0-.07-4.07 1.7 1.7 0 0 0-1.45-1.55c-.43-.08-.37-.24-.16-.49a1.62 1.62 0 0 1 1.38-.69h5.09c.8.16 1 .52 1.09 1.32v5.65c0 .31.16 1.24.72 1.44s.75-.21 1-.5a17.56 17.56 0 0 0 2.87-4.4c.34-.7.64-1.42.93-2.14a1.1 1.1 0 0 1 1.15-.79h4.9a2.56 2.56 0 0 1 .43 0c.83.14 1.05.5.8 1.3a12.19 12.19 0 0 1-1.95 3.37c-.82 1.13-1.69 2.22-2.5 3.36s-.66 1.62.27 2.52z" id="nСлой_3" data-name="Слой 3"/></g></symbol><symbol viewBox="0 0 30.95 17.48" id="i_vk_g" xmlns="http://www.w3.org/2000/svg"><defs><style>.ocls-1{fill:#e6e6e6}</style></defs><title>i_vk_g</title><g id="oСлой_2" data-name="Слой 2"><path class="ocls-1" d="M30.75 15.71c.41.81 0 1.7-.69 1.75h-4.51a3.52 3.52 0 0 1-2.87-1.17c-.62-.63-1.2-1.31-1.8-2a3.94 3.94 0 0 0-.81-.72.94.94 0 0 0-1.5.36 4.75 4.75 0 0 0-.48 2.1c-.05 1.06-.37 1.34-1.43 1.39a11.59 11.59 0 0 1-6.45-1.39 14.12 14.12 0 0 1-4.34-4A55 55 0 0 1 .15 1.85C-.21 1 .06.62.94.61h4.42a1.31 1.31 0 0 1 1.22.92A27.1 27.1 0 0 0 9.57 7a4.78 4.78 0 0 0 1.13 1.29.69.69 0 0 0 1.17-.34 3.89 3.89 0 0 0 .26-1.16 17.88 17.88 0 0 0-.07-4.07 1.71 1.71 0 0 0-1.45-1.55c-.43-.08-.37-.24-.16-.49A1.62 1.62 0 0 1 11.83 0h5.1c.8.15 1 .51 1.09 1.32V7c0 .31.16 1.24.72 1.44s.75-.21 1-.5a17.56 17.56 0 0 0 2.87-4.4c.34-.69.64-1.41.93-2.14a1.08 1.08 0 0 1 1.17-.81h4.9a2.19 2.19 0 0 1 .44 0c.82.14 1 .49.79 1.3a12 12 0 0 1-2 3.37c-.81 1.13-1.69 2.22-2.5 3.36s-.69 1.56.24 2.46 2.11 1.94 3 3a9.29 9.29 0 0 1 1.17 1.63z" id="oСлой_3" data-name="Слой 3"/></g></symbol></svg>