<svg xmlns="http://www.w3.org/2000/svg" viewBox="0 0 15.46 17.5"><defs><style>.cls-1{fill:none;stroke:#fb3;stroke-miterlimit:10;stroke-width:2px;}</style></defs><title>phone</title><g id="Слой_2" data-name="Слой 2"><g id="Слой_3" data-name="Слой 3"><path class="cls-1" d="M10.16,1.4,8.37,3.81a1,1,0,0,0,.2,1.4l.8.6a1,1,0,0,1,.2,1.4l-3,4a1,1,0,0,1-1.4.2l-.8-.6A1,1,0,0,0,3,11L1.2,13.43a1,1,0,0,0,.2,1.4l1,.72a4.79,4.79,0,0,0,6.71-1l4.43-5.95a4.79,4.79,0,0,0-1-6.71l-1-.72A1,1,0,0,0,10.16,1.4Z"/></g></g></svg>