<svg xmlns="http://www.w3.org/2000/svg" viewBox="0 0 44 43.92"><defs><style>.cls-1{fill:#fb3;}</style></defs><title>vk</title><g id="Слой_2" data-name="Слой 2"><g id="Слой_3" data-name="Слой 3"><path class="cls-1" d="M22,0A22,22,0,1,0,44,22,22,22,0,0,0,22,0ZM33.16,24.33a41.79,41.79,0,0,1,3,3,8.62,8.62,0,0,1,1.08,1.56c.42.81,0,1.7-.69,1.74H32.08a3.49,3.49,0,0,1-2.87-1.17c-.62-.63-1.2-1.31-1.8-2a4.21,4.21,0,0,0-.81-.72.94.94,0,0,0-1.5.36,4.7,4.7,0,0,0-.47,2.1c0,1.06-.37,1.34-1.44,1.39a11.56,11.56,0,0,1-6.45-1.39,14.23,14.23,0,0,1-4.34-4.05A54.62,54.62,0,0,1,6.68,15.08c-.36-.8-.1-1.23.79-1.25,1.47,0,2.94,0,4.41,0a1.3,1.3,0,0,1,1.22.92,27.32,27.32,0,0,0,3,5.53,4.73,4.73,0,0,0,1.13,1.24.69.69,0,0,0,1.17-.34A3.77,3.77,0,0,0,18.66,20a17.31,17.31,0,0,0-.07-4.07,1.7,1.7,0,0,0-1.45-1.55c-.43-.08-.37-.24-.16-.49a1.62,1.62,0,0,1,1.38-.69h5.09c.8.16,1,.52,1.09,1.32v5.65c0,.31.16,1.24.72,1.44s.75-.21,1-.5a17.56,17.56,0,0,0,2.87-4.4c.34-.7.64-1.42.93-2.14a1.1,1.1,0,0,1,1.15-.79h4.9a2.56,2.56,0,0,1,.43,0c.83.14,1.05.5.8,1.3a12.19,12.19,0,0,1-1.95,3.37c-.82,1.13-1.69,2.22-2.5,3.36S32.23,23.43,33.16,24.33Z"/></g></g></svg>