<svg xmlns="http://www.w3.org/2000/svg" viewBox="0 0 200 67"><defs><style>.cls-1{fill:#fb3;}.cls-2{fill:#ff746b;}</style></defs><title>logo_h</title><g id="Слой_2" data-name="Слой 2"><g id="Слой_3" data-name="Слой 3"><path class="cls-1" d="M44.16,34.75a4.19,4.19,0,0,1-.49,2.07,4.28,4.28,0,0,1-1.35,1.46,6.34,6.34,0,0,1-2,.88,9.47,9.47,0,0,1-2.41.3H29V24.29a3.58,3.58,0,0,0-2-3.2H39.2a3.63,3.63,0,0,1,1.73.41,4.33,4.33,0,0,1,1.32,1.07,4.91,4.91,0,0,1,.84,1.5,5.11,5.11,0,0,1,.3,1.72,5,5,0,0,1-.66,2.48,4.17,4.17,0,0,1-2,1.76,4.76,4.76,0,0,1,2.5,1.66A4.86,4.86,0,0,1,44.16,34.75Zm-10.94-10v3.8h4.16A1.85,1.85,0,0,0,38.63,28a1.81,1.81,0,0,0,.54-1.45,1.92,1.92,0,0,0-.48-1.4,1.55,1.55,0,0,0-1.15-.49Zm6.62,9.18a2.2,2.2,0,0,0-.49-1.45,1.54,1.54,0,0,0-1.24-.59H33.22v4h4.71a1.86,1.86,0,0,0,1.37-.54A1.92,1.92,0,0,0,39.84,33.9Z"/><path class="cls-1" d="M50.41,28.39h1l5.35-7.29h4.78L54.91,30l7.19,9.49H57.37l-5.61-7.22H50.41v7.22H46.17V24.29a3.58,3.58,0,0,0-2-3.2h6.22Z"/><path class="cls-1" d="M68.19,39.64a5.2,5.2,0,0,1-.67-.05q-.39-.05-.79-.14a5.22,5.22,0,0,1-.79-.25,3,3,0,0,1-.7-.39L66,35.32l.7.39a2.3,2.3,0,0,0,1.09.26,1.8,1.8,0,0,0,1.14-.36h0a1.6,1.6,0,0,0,.34-2L62.89,21.09h4.66l4,9.1,3.72-9.1h4.47l-6.47,14a20.44,20.44,0,0,1-1.1,2.11,6.47,6.47,0,0,1-1.13,1.41,3.94,3.94,0,0,1-1.29.8A4.61,4.61,0,0,1,68.19,39.64Z"/><path class="cls-1" d="M79.47,30.12a9.26,9.26,0,0,1,.62-3.3,9,9,0,0,1,1.81-2.94,9.21,9.21,0,0,1,2.9-2.1,9,9,0,0,1,3.88-.8,8.73,8.73,0,0,1,4.49,1.11A7.19,7.19,0,0,1,96,25l-1.92,1.34A1.64,1.64,0,0,1,92,26.08h0a4.3,4.3,0,0,0-2.21-1.19,6,6,0,0,0-1.16-.12,4.38,4.38,0,0,0-2.12.49A4.66,4.66,0,0,0,85,26.52a5.26,5.26,0,0,0-.88,1.76,7.14,7.14,0,0,0-.28,2,6.59,6.59,0,0,0,.34,2.1,5.59,5.59,0,0,0,1,1.78,4.69,4.69,0,0,0,1.53,1.23,4.36,4.36,0,0,0,2,.45,5.16,5.16,0,0,0,1.18-.14A4.77,4.77,0,0,0,91,35.25a4.19,4.19,0,0,0,1-.78l0,0a1.63,1.63,0,0,1,2-.35l2.14,1.26A5.38,5.38,0,0,1,95,37.15,7.57,7.57,0,0,1,93.1,38.5a10.29,10.29,0,0,1-4.58,1.11,8.22,8.22,0,0,1-3.66-.81A9.25,9.25,0,0,1,82,36.64a9.88,9.88,0,0,1-1.86-3.05A9.53,9.53,0,0,1,79.47,30.12Z"/><path class="cls-1" d="M114.46,21.09V39.46h-4.24V31.93H102.9v7.53H98.66V24.29a3.58,3.58,0,0,0-2-3.2h6.22V28.2h7.32V21.09Z"/><path class="cls-1" d="M122.69,21.09v6.29h3.26a8.44,8.44,0,0,1,2.68.4,5.79,5.79,0,0,1,2.06,1.16A5.13,5.13,0,0,1,132,30.82a6.43,6.43,0,0,1,.47,2.51,7,7,0,0,1-.45,2.59,5.28,5.28,0,0,1-1.29,1.93,5.66,5.66,0,0,1-2,1.2,7.68,7.68,0,0,1-2.59.41h-7.71V21.09Zm0,14.77h2.92a2.47,2.47,0,0,0,1.9-.69,3,3,0,0,0,0-3.7,2.38,2.38,0,0,0-1.89-.74h-2.92Zm12.08,3.6V21.09H139V39.46Z"/><path class="cls-1" d="M147.24,32.86l8.64-11.77H159V39.46h-4.24V28l-8.54,11.48H143V24.29a3.58,3.58,0,0,0-2-3.2h6.24Z"/><path class="cls-1" d="M157.38,6.66c.66,3.65.39,6.19-.79,7.88-1.33,1.9-4,3.08-8.24,3.6-1.77-6.73.56-7.67,4.56-9.27a22.89,22.89,0,0,0,4.48-2.2"/><path class="cls-1" d="M81.89,51.07,85.29,45h3V56.44h-2.8v-6.9l-2.91,5.17H81.19l-2.91-5.17v6.9h-2.8V47A3,3,0,0,0,74.61,45H78.5Z"/><path class="cls-1" d="M94.14,56.66a4.36,4.36,0,0,1-1.56-.27,3.74,3.74,0,0,1-1.25-.77,3.56,3.56,0,0,1-.82-1.15,3.48,3.48,0,0,1-.3-1.45,3.19,3.19,0,0,1,.36-1.5,3.44,3.44,0,0,1,1-1.17,5,5,0,0,1,1.54-.76,6.74,6.74,0,0,1,2-.27,8.5,8.5,0,0,1,1.5.13,6.12,6.12,0,0,1,1.3.37v-.66a2.3,2.3,0,0,0-.65-1.75,2.69,2.69,0,0,0-1.92-.61,5.08,5.08,0,0,0-1.8.33q-.29.11-.59.25a1.36,1.36,0,0,1-1.84-.6l-.27-.56a8.48,8.48,0,0,1,4.78-1.47A5.6,5.6,0,0,1,99.48,46a4.46,4.46,0,0,1,1.37,3.52v3.57a1,1,0,0,0,.16.66.72.72,0,0,0,.54.22v2.5a6.56,6.56,0,0,1-1.29.15A2,2,0,0,1,99,56.22a1.6,1.6,0,0,1-.56-1l-.07-.64a5.08,5.08,0,0,1-1.86,1.53A5.35,5.35,0,0,1,94.14,56.66ZM95,54.51a3.83,3.83,0,0,0,1.41-.26,2.56,2.56,0,0,0,1-.7,1.05,1.05,0,0,0,.48-.83V51.4a7.21,7.21,0,0,0-1.14-.32A6.16,6.16,0,0,0,95.59,51a3.14,3.14,0,0,0-1.86.51,1.55,1.55,0,0,0-.72,1.3A1.57,1.57,0,0,0,93.57,54,2.07,2.07,0,0,0,95,54.51Z"/><path class="cls-1" d="M111.38,47.39h-4.8v9h-2.91V47a3,3,0,0,0-.86-2.08h8.57Z"/><path class="cls-1" d="M116.2,56.66a4.36,4.36,0,0,1-1.56-.27,3.74,3.74,0,0,1-1.25-.77,3.56,3.56,0,0,1-.82-1.15,3.48,3.48,0,0,1-.3-1.45,3.19,3.19,0,0,1,.36-1.5,3.44,3.44,0,0,1,1-1.17,5,5,0,0,1,1.54-.76,6.74,6.74,0,0,1,2-.27,8.5,8.5,0,0,1,1.5.13,6.12,6.12,0,0,1,1.3.37v-.66a2.3,2.3,0,0,0-.65-1.75,2.69,2.69,0,0,0-1.92-.61,5.08,5.08,0,0,0-1.8.33q-.29.11-.59.25a1.36,1.36,0,0,1-1.84-.6l-.27-.56a8.48,8.48,0,0,1,4.78-1.47A5.6,5.6,0,0,1,121.54,46a4.46,4.46,0,0,1,1.37,3.52v3.57a1,1,0,0,0,.16.66.72.72,0,0,0,.54.22v2.5a6.56,6.56,0,0,1-1.29.15,2,2,0,0,1-1.28-.37,1.6,1.6,0,0,1-.56-1l-.07-.64a5.08,5.08,0,0,1-1.86,1.53A5.35,5.35,0,0,1,116.2,56.66Zm.83-2.15a3.83,3.83,0,0,0,1.41-.26,2.56,2.56,0,0,0,1-.7,1.05,1.05,0,0,0,.48-.83V51.4a7.21,7.21,0,0,0-1.14-.32,6.16,6.16,0,0,0-1.18-.12,3.14,3.14,0,0,0-1.86.51,1.55,1.55,0,0,0-.72,1.3,1.57,1.57,0,0,0,.57,1.24A2.07,2.07,0,0,0,117,54.51Z"/><path class="cls-1" d="M125.1,46.21a5.64,5.64,0,0,1,1.86-1.1,6.23,6.23,0,0,1,2.06-.35,5.46,5.46,0,0,1,1.45.19,3.68,3.68,0,0,1,1.19.56,2.81,2.81,0,0,1,.61,3.82,2.14,2.14,0,0,1-1.39.87,3.09,3.09,0,0,1,1.88,1,3,3,0,0,1,.64,1.94,3,3,0,0,1-.34,1.43,3.38,3.38,0,0,1-.93,1.11,4.35,4.35,0,0,1-1.41.71,6.07,6.07,0,0,1-1.79.25,6.49,6.49,0,0,1-2.43-.44A4.49,4.49,0,0,1,124.72,55l.76-1a1,1,0,0,1,1.36-.23,2.82,2.82,0,0,0,.37.19,3.58,3.58,0,0,0,1.41.27,2.41,2.41,0,0,0,1.43-.37,1.24,1.24,0,0,0,.51-1.07,1.42,1.42,0,0,0-.58-1.22,3.4,3.4,0,0,0-2-.43h-.9V49.43H128a2.71,2.71,0,0,0,1.61-.41,1.23,1.23,0,0,0,.56-1,1,1,0,0,0-.41-.83,1.81,1.81,0,0,0-1.06-.28,3.28,3.28,0,0,0-1.2.25,3.65,3.65,0,0,0-.42.2,1,1,0,0,1-1.34-.24Z"/><path class="cls-1" d="M138.29,52.25l5.43-7.3h2.17V56.44H143v-7.1l-5.37,7.1h-2.23V47a3,3,0,0,0-.86-2.08h3.78Z"/><path class="cls-1" d="M151.56,49.29h4.56V45H159V56.44h-2.91V51.79h-4.56v4.64h-2.91V47a3,3,0,0,0-.86-2.08h3.78Z"/><circle class="cls-2" cx="49" cy="61" r="6"/><circle class="cls-2" cx="8" cy="18" r="8"/><circle class="cls-1" cx="81" cy="5" r="5"/><circle class="cls-1" cx="10" cy="53" r="4"/><circle class="cls-1" cx="175.5" cy="57.5" r="7.5"/><circle class="cls-2" cx="189.5" cy="22.5" r="10.5"/></g></g></svg>