<svg display="none" xmlns="http://www.w3.org/2000/svg">
  <symbol id="play-video" viewBox="0 0 58 58" >
  <g id="aСлой_3" data-name="Слой 3">
  <path class="acls-1" d="M42.83 29.5L21 18.2v22.6l21.83-11.3z"/>
  <path class="acls-1" d="M29 58a29 29 0 1 1 29-29 29 29 0 0 1-29 29zm0-56a27 27 0 1 0 27 27A27 27 0 0 0 29 2z"/>
  </g>
  </symbol>
  <symbol id="i_brush" viewBox="0 0 20.49 20.53">
    <g id="aGrid">
      <path class="acls-1" d="M3 20.53a3 3 0 0 1-2.12-5.12l9.9-9.9L15 9.75l-9.9 9.9a3 3 0 0 1-2.1.88zm7.78-12.19l-8.49 8.48a1 1 0 0 0 1.41 1.41l8.49-8.49z"/>
      <path
        class="acls-1"
        d="M13.6 10.75v-2a8.81 8.81 0 0 0 4-3.39 4.91 4.91 0 0 0 .91-2.83c-.75.19-1.44.31-2.08.42-2.51.44-3.77.66-4.66 4.21l-1.96-.48C11 1.87 13.35 1.46 16.06 1a19.11 19.11 0 0 0 2.89-.68l.94-.32.32.95A6.46 6.46 0 0 1 19 6.87c-1.53 2.07-4 3.88-5.4 3.88z"/>
      <path class="acls-1" transform="rotate(-45 9.363 11.162)" d="M8.36 9.16h2v4h-2z"/>
    </g>
  </symbol>
  <symbol id="i_cake_about" viewBox="0 0 216.49 100.6">
    <defs>
      <style>
        #i_cake_about .acls-1,
        #i_cake_about .acls-3,
        #i_cake_about .acls-5 {
          fill: none;
        }
        #i_cake_about .acls-1 {
          stroke: #ff564d;
        }
        #i_cake_about .acls-1,
        #i_cake_about .acls-3,
        #i_cake_about .acls-5,
        #i_cake_about .acls-6 {
          stroke-miterlimit: 10;
        }
        #i_cake_about .acls-1,
        #i_cake_about .acls-5,
        #i_cake_about .acls-6 {
          stroke-width: 4px;
        }
        #i_cake_about .acls-2 {
          fill: #fb3;
        }
        #i_cake_about .acls-3,
        #i_cake_about .acls-5,
        #i_cake_about .acls-6 {
          stroke: #fb3;
        }
        #i_cake_about .acls-3 {
          stroke-width: 2px;
        }
        #i_cake_about .acls-4 {
          fill: #ff564d;
        }
        #i_cake_about .acls-6 {
          fill: #fff;
        }

      </style>
    </defs>
    <g id="aСлой_2" data-name="Слой 2">
      <g id="aСлой_3" data-name="Слой 3">
        <circle class="acls-1" cx="177.25" cy="74.59" r="9.25"/>
        <circle class="acls-2" cx="210.25" cy="48.59" r="6.25"/>
        <circle class="acls-3" cx="10.25" cy="54.59" r="9.25"/>
        <circle class="acls-4" cx="50.28" cy="25.6" r="6.93"/>
        <path class="acls-1" d="M30.75 77.33c5-1.44 7.24 6.25 12.27 4.81S45.86 73 50.9 71.56s7.24 6.25 12.28 4.81M161.67 28.31L186.41 8.9"/>
        <path class="acls-5" d="M85.99 70.39l15.03 27.83 40.29-11.75L139 54.92 85.99 70.39z"/>
        <path class="acls-5" d="M125.48 24.36c5.21 10-33.57 19-42.94 26.34S77.78 65.89 86 70.4"/>
        <path class="acls-5" d="M85.79 48.58C78.57 45 73.35 35 87 26.39c9.53-6 20.23-17.41 18.37-23.77 0 0 21.43 4.38 20 23.2M136.09 55.78c9.54-9.69 9.45-25.77-10.61-31.42M96.51 66.75l12.9 28.45M126.23 58.56l4.43 30.92M111.44 62.97l8.66 29.69"/>
        <circle class="acls-6" cx="96.32" cy="19.06" r="6.63" transform="rotate(-16.27 96.326 19.052)"/>
        <path class="acls-6" d="M92.35 13.32C89 9.69 84.13 8.81 75 9.17"/>
      </g>
    </g>
  </symbol>

  <symbol id="i_cake" viewBox="0 0 20 21">
    <g id="aСлой_3" data-name="Слой 3">
      <path class="acls-1" d="M0 19h20v2H0z"/>
      <path class="acls-1" d="M18 20h-2v-8a1 1 0 0 0-1-1H5a1 1 0 0 0-1 1v8H2v-8a3 3 0 0 1 3-3h10a3 3 0 0 1 3 3z"/>
      <path
        class="acls-1"
        d="M12.18 15.42a6 6 0 0 1-2.63-.52 7.92 7.92 0 0 0-6.14-.07L2.58 13a9.86 9.86 0 0 1 7.86.1c1.56.78 5.12-.09 5.85-.81l1.41 1.41c-.91.92-3.33 1.72-5.52 1.72zM16 10h-2V6c0-.53-.7-1-1.5-1h-5C6.7 5 6 5.47 6 6v4H4V6a3.28 3.28 0 0 1 3.5-3h5A3.28 3.28 0 0 1 16 6z"/>
      <path class="acls-1" d="M9 0h2v4H9z"/>
    </g>
  </symbol>
  <symbol id="i_candy_about" viewBox="0 0 201.68 99.36">
    <defs>
      <style>
        #i_candy_about .acls-1,
        #i_candy_about .acls-4,
        #i_candy_about .acls-5 {
          fill: none;
          stroke-miterlimit: 10;
        }
        #i_candy_about .acls-1,
        #i_candy_about .acls-5 {
          stroke: #fb3;
        }
        #i_candy_about .acls-1 {
          stroke-width: 2px;
        }
        #i_candy_about .acls-2 {
          fill: #ff564d;
        }
        #i_candy_about .acls-3 {
          fill: #fb3;
        }
        #i_candy_about .acls-4 {
          stroke: #ff564d;
        }
        #i_candy_about .acls-4,
        #i_candy_about .acls-5 {
          stroke-width: 4px;
        }

      </style>
    </defs>
    <g id="aСлой_2" data-name="Слой 2">
      <g id="aСлой_3" data-name="Слой 3">
        <circle class="acls-1" cx="13.74" cy="36.99" r="12.74" transform="rotate(-4.51 13.802 37.042)"/>
        <circle class="acls-2" cx="35.77" cy="73" r="6.93"/>
        <circle class="acls-3" cx="173.77" cy="11" r="6.93"/>
        <circle class="acls-4" cx="190.26" cy="50.51" r="9.42"/>
        <path class="acls-5" d="M143.92 71.33c3.71 1.29 1.1 8.85 4.81 10.13s6.33-6.27 10-5 1.1 8.85 4.81 10.13 6.33-6.27 10-5"/>
        <path class="acls-4" d="M44.34 16l30.4 8"/>
        <path
          class="acls-3"
          d="M159 22.84a8.3 8.3 0 0 0-6.34-2.38c-1.21 0-1.39-.05-1.8-.46s-.43-.58-.45-1.78a8.21 8.21 0 0 0-8.74-8.7c-1.21 0-1.39 0-1.8-.46s-.43-.58-.45-1.78A8.23 8.23 0 0 0 137 1a3.32 3.32 0 0 0-3.19-.85l-8.31 2.2a3.31 3.31 0 0 0-2.44 2.92L121.87 20a4.35 4.35 0 0 0-2.75 1.25L117 23.41a4.31 4.31 0 0 0-1.12 1.92 27 27 0 0 0-10.47 1.38C97.26 29.3 89.3 35.54 83 44.27a72.47 72.47 0 0 0-11.59 24.39 44.48 44.48 0 0 0-.89 4.82 2.47 2.47 0 0 0-1 1l-9.61 17.24a2.9 2.9 0 0 0 .48 3.41l3.42 3.41a2.9 2.9 0 0 0 2 .82 2.82 2.82 0 0 0 1.41-.36l17.32-9.53a2.47 2.47 0 0 0 1-1 45.18 45.18 0 0 0 4.87-.89c2-.51 4.14-1.14 6.22-1.88a1.87 1.87 0 1 0-1.25-3.52c-2 .7-3.94 1.3-5.85 1.77a39.46 39.46 0 0 1-5.26.91l-1.37-1.38L90 76.4a1.87 1.87 0 1 0-2.63-2.65l-7.13 7.1-2.1-2.09 3.54-3.52a1.87 1.87 0 0 0-2.63-2.65l-3.55 3.53-1.39-1.38a38.78 38.78 0 0 1 .91-5.2A68.64 68.64 0 0 1 86 46.47c5.88-8.1 13.18-13.85 20.55-16.21a22.72 22.72 0 0 1 10.09-1.09 4.37 4.37 0 0 0 .35.39l3.13 3.12a1.87 1.87 0 0 0 2.6-2.68l-3.13-3.12a.62.62 0 0 1 0-.87l2.17-2.16a.64.64 0 0 1 .89 0l12.74 12.68a.62.62 0 0 1 0 .87l-2.17 2.16a.64.64 0 0 1-.89 0l-4.13-4.11a1.87 1.87 0 0 0-2.63 2.65l4.13 4.11a4.33 4.33 0 0 0 .39.34 22.43 22.43 0 0 1-1.1 10c-2.37 7.32-8.15 14.57-16.28 20.43a70.6 70.6 0 0 1-10.05 6 1.87 1.87 0 0 0 1.65 3.35 74.32 74.32 0 0 0 10.59-6.35c8.78-6.32 15-14.24 17.65-22.3a26.66 26.66 0 0 0 1.39-10.43 4.33 4.33 0 0 0 1.93-1.11l2.13-2.05a4.31 4.31 0 0 0 1.3-3.09v-.05l14.7-.78a3.3 3.3 0 0 0 2.93-2.17l2.86-7.69a3.3 3.3 0 0 0-.79-3.47zM81.21 87.06l-13.67 7.51a1.84 1.84 0 0 1-2.18-.3l-.69-.68a1.84 1.84 0 0 1-.32-2.2l7.56-13.59zm72.32-54.61l-16.11.87-1.06-1.05 6.7-1.79a1.87 1.87 0 0 0-1-3.61l-8.8 2.35-.31-.31 5.38-5.36a1.87 1.87 0 0 0-2.63-2.65l-5.39 5.37L130 26l2.35-8.74a1.87 1.87 0 1 0-3.61-1L127 22.93l-1.47-1.46 1.26-15.59 7.8-2.09a4.69 4.69 0 0 1 1.13 3.58 5.46 5.46 0 0 0 1.55 4.35 5.5 5.5 0 0 0 4.36 1.54 4.68 4.68 0 0 1 3.78 1.29 4.62 4.62 0 0 1 1.3 3.75 5.38 5.38 0 0 0 5.92 5.9 4.77 4.77 0 0 1 3.58 1.1z"/>
      </g>
    </g>
  </symbol>

  <symbol id="i_cart" viewBox="0 0 22 24">
    <defs>
      <style>
        #i_cart .acls-3 {
          fill: #fff7e6;
        }

      </style>
    </defs>
    <g id="aСлой_3" data-name="Слой 3">
      <path class="acls-1" d="M0 0h22v24H0z"/>
      <path class="acls-2" d="M22 4H0"/>
      <path class="acls-3" d="M0 3h22v2H0zM11 14a6 6 0 0 1-6-6h2a4 4 0 0 0 8 0h2a6 6 0 0 1-6 6z"/>
    </g>
  </symbol>
  <symbol id="i_cross" viewBox="0 0 15.41 15.41">
    <g id="aСлой_3" data-name="Слой 3">
      <path class="acls-1" transform="rotate(-45 7.712 7.706)" d="M6.71-2.19h2v19.8h-2z"/>
      <path class="acls-1" transform="rotate(-45 7.712 7.706)" d="M-2.19 6.71h19.8v2h-19.8z"/>
    </g>
  </symbol>
  <symbol id="i_dandruff" viewBox="0 0 19.21 19.21">
    <g id="aСлой_3" data-name="Слой 3">
      <path class="acls-1" d="M12.21 14a7 7 0 1 1 7-7 7 7 0 0 1-7 7zm0-12a5 5 0 1 0 5 5 5 5 0 0 0-5-5z"/>
      <path class="acls-1" transform="rotate(-45 4.457 14.744)" d="M-.85 13.75H9.76v2H-.85z"/>
    </g>
  </symbol>
  <symbol id="i_inventory" viewBox="0 0 20.14 20.14">
    <g id="aСлой_3" data-name="Слой 3">
      <path class="acls-1" d="M7.95 18.43a2 2 0 0 1-1.41-.58L2.29 13.6a2 2 0 0 1 0-2.83l8.49-8.49a2 2 0 0 1 2.83 0l4.24 4.24a2 2 0 0 1 0 2.83l-8.49 8.5a2 2 0 0 1-1.41.58zM12.19 3.7l-8.48 8.49 4.24 4.24 8.49-8.49z"/>
      <path class="acls-1" d="M17.14 7.24l-1.41-1.41 2.12-2.12a1 1 0 1 0-1.42-1.41l-2.12 2.11L12.9 3 15 .88a3 3 0 0 1 4.24 4.24zM3 20.14A3 3 0 0 1 .88 15L3 12.9l1.41 1.41-2.12 2.12a1 1 0 1 0 1.41 1.41l2.12-2.12 1.41 1.41-2.11 2.13a3 3 0 0 1-2.12.88z"/>
    </g>
  </symbol>
  <symbol id="i_minus" viewBox="0 0 8 2">
    <g id="aСлой_2" data-name="Слой 2">
      <path class="acls-1" d="M0 0h8v2H0z" id="aСлой_3" data-name="Слой 3"/>
    </g>
  </symbol>
  <symbol id="i_ok_g" viewBox="0 0 18.38 30.57">
    <g id="aСлой_3" data-name="Слой 3">
      <path
        class="acls-1"
        d="M14.55 20.67a15.73 15.73 0 0 1-3.81.86l.41.44 5.29 5.3a1.76 1.76 0 0 1 .4 2.06 2.09 2.09 0 0 1-2 1.21 1.87 1.87 0 0 1-1.24-.63c-1.33-1.33-2.69-2.65-4-4-.38-.39-.56-.32-.9 0C7.41 27.3 6 28.65 4.68 30a1.68 1.68 0 0 1-2.05.37 2.1 2.1 0 0 1-1.21-1.92 1.94 1.94 0 0 1 .65-1.28L7.29 22l.39-.42a11.92 11.92 0 0 1-6.34-2.26c-.23-.18-.46-.35-.67-.55a1.8 1.8 0 0 1-.25-2.56 1.82 1.82 0 0 1 2.4-.54 4.59 4.59 0 0 1 .53.31 10.4 10.4 0 0 0 11.53.02 3.12 3.12 0 0 1 1.12-.54 1.75 1.75 0 0 1 2 .8 1.7 1.7 0 0 1-.12 2.25 9.28 9.28 0 0 1-3.33 2.16z"/>
      <path class="acls-1" d="M9.22 0a7.74 7.74 0 1 0 7.71 7.84A7.76 7.76 0 0 0 9.22 0zm0 11.52A3.78 3.78 0 1 1 13 7.73a3.76 3.76 0 0 1-3.79 3.79z"/>
    </g>
  </symbol>
  <symbol id="i_ok" viewBox="0 0 44 43.92">
    <g id="aСлой_3" data-name="Слой 3">
      <path class="acls-1" d="M22 18.2a3.79 3.79 0 1 0-3.82-3.75A3.76 3.76 0 0 0 22 18.2z"/>
      <path
        class="acls-1"
        d="M22 0a22 22 0 1 0 22 22A22 22 0 0 0 22 0zm0 6.68a7.73 7.73 0 1 1-7.77 7.72A7.74 7.74 0 0 1 22 6.68zm8.68 18.51a9.32 9.32 0 0 1-3.35 2.16 15.8 15.8 0 0 1-3.81.85l.41.44c1.76 1.77 3.53 3.53 5.29 5.3a1.74 1.74 0 0 1 .42 2.06 2.09 2.09 0 0 1-2 1.22 1.91 1.91 0 0 1-1.24-.63c-1.33-1.34-2.69-2.65-4-4-.38-.4-.56-.32-.9 0-1.34 1.38-2.7 2.73-4.07 4.08a1.71 1.71 0 0 1-2.06.37 2.08 2.08 0 0 1-1.2-1.91 1.91 1.91 0 0 1 .65-1.28l5.23-5.22.39-.42a11.92 11.92 0 0 1-6.35-2.26 8.39 8.39 0 0 1-.67-.55 1.79 1.79 0 0 1-.25-2.56 1.81 1.81 0 0 1 2.4-.54 3.72 3.72 0 0 1 .53.31 10.42 10.42 0 0 0 11.53.1 3.13 3.13 0 0 1 1.12-.58 1.76 1.76 0 0 1 2 .8 1.71 1.71 0 0 1-.04 2.26z"/>
    </g>
  </symbol>
  <symbol id="i_person" viewBox="0 0 16 20">
    <g id="aСлой_3" data-name="Слой 3">
      <path class="acls-1" d="M16 20H0v-1a8 8 0 0 1 16 0zM2.08 18h11.84a6 6 0 0 0-11.84 0zM8 10a5 5 0 1 1 5-5 5 5 0 0 1-5 5zm0-8a3 3 0 1 0 3 3 3 3 0 0 0-3-3z"/>
    </g>
  </symbol>
  <symbol id="i_plus" viewBox="0 0 8 8">
    <g id="aСлой_3" data-name="Слой 3">
      <path class="acls-1" d="M3 0h2v8H3z"/>
      <path class="acls-1" d="M0 3h8v2H0z"/>
    </g>
  </symbol>
  <symbol id="i_slider_arr_l" viewBox="0 0 49.6 12.35">
    <g id="aСлой_3" data-name="Слой 3">
      <path class="acls-1" d="M2.6 5.17h47v2h-47z"/>
      <path class="acls-1" d="M5.61 12.35L0 6.17 5.61 0l1.48 1.35L2.7 6.17 7.09 11l-1.48 1.35z"/>
    </g>
  </symbol>
  <symbol id="i_slider_arr_r" viewBox="0 0 49.6 12.35">
    <g id="aСлой_3" data-name="Слой 3">
      <path class="acls-1" d="M0 5.17h47v2H0z"/>
      <path class="acls-1" d="M43.99 12.35L42.51 11l4.39-4.83-4.39-4.82L43.99 0l5.61 6.17-5.61 6.18z"/>
    </g>
  </symbol>
  <symbol id="i_star_adv" viewBox="0 0 130.81 124">
    <defs>
      <style>
        #i_star_adv .acls-1,
        #i_star_adv .acls-2,
        #i_star_adv .acls-5,
        #i_star_adv .acls-6 {
          fill: none;
          stroke-miterlimit: 10;
        }
        #i_star_adv .acls-1,
        #i_star_adv .acls-2 {
          stroke: #ff564d;
        }
        #i_star_adv .acls-1,
        #i_star_adv .acls-5 {
          stroke-width: 2px;
        }
        #i_star_adv .acls-2,
        #i_star_adv .acls-6 {
          stroke-width: 4px;
        }
        #i_star_adv .acls-3 {
          fill: #ffc44d;
        }
        #i_star_adv .acls-4 {
          fill: #fb3;
        }
        #i_star_adv .acls-5,
        #i_star_adv .acls-6 {
          stroke: #fffefa;
        }
        #i_star_adv .acls-7 {
          fill: #ff564d;
        }

      </style>
    </defs>
    <g id="aСлой_3" data-name="Слой 3">
      <circle class="acls-1" cx="100.5" cy="11.5" r="10.5"/>
      <circle class="acls-2" cx="108" cy="105" r="8"/>
      <circle class="acls-1" cx="10" cy="77" r="9"/>
      <circle class="acls-3" cx="68.5" cy="118.5" r="5.5"/>
      <circle class="acls-3" cx="38" cy="20" r="4"/>
      <path class="acls-4" d="M65 .17l19.78 40.07L129 46.67 97 77.86l7.55 44.04L65 101.11 25.45 121.9 33 77.86 1 46.67l44.22-6.43L65 .17z"/>
      <path class="acls-2" d="M4.18 14.18c4.33 1.33 2 9 6.31 10.31s6.69-6.31 11-5 2 9 6.32 10.31M103.26 58.51c4.53-.17 4.82 7.83 9.35 7.66s4.24-8.16 8.77-8.33 4.83 7.83 9.36 7.66"/>
      <circle class="acls-5" cx="54" cy="105" r="9"/>
      <path class="acls-5" d="M25.19 50.99l38-3"/>
      <path class="acls-6" d="M69 71l21 8"/>
      <circle class="acls-7" cx="52.5" cy="82.5" r="5.5"/>
      <circle class="acls-7" cx="81" cy="53" r="7"/>
    </g>
  </symbol>

  <symbol id="i_vk_g" viewBox="0 0 30.95 17.48">
    <g id="aСлой_2" data-name="Слой 2">
      <path
        class="acls-1"
        d="M30.75 15.71c.41.81 0 1.7-.69 1.75h-4.51a3.52 3.52 0 0 1-2.87-1.17c-.62-.63-1.2-1.31-1.8-2a3.94 3.94 0 0 0-.81-.72.94.94 0 0 0-1.5.36 4.75 4.75 0 0 0-.48 2.1c-.05 1.06-.37 1.34-1.43 1.39a11.59 11.59 0 0 1-6.45-1.39 14.12 14.12 0 0 1-4.34-4A55 55 0 0 1 .15 1.85C-.21 1 .06.62.94.61h4.42a1.31 1.31 0 0 1 1.22.92A27.1 27.1 0 0 0 9.57 7a4.78 4.78 0 0 0 1.13 1.29.69.69 0 0 0 1.17-.34 3.89 3.89 0 0 0 .26-1.16 17.88 17.88 0 0 0-.07-4.07 1.71 1.71 0 0 0-1.45-1.55c-.43-.08-.37-.24-.16-.49A1.62 1.62 0 0 1 11.83 0h5.1c.8.15 1 .51 1.09 1.32V7c0 .31.16 1.24.72 1.44s.75-.21 1-.5a17.56 17.56 0 0 0 2.87-4.4c.34-.69.64-1.41.93-2.14a1.08 1.08 0 0 1 1.17-.81h4.9a2.19 2.19 0 0 1 .44 0c.82.14 1 .49.79 1.3a12 12 0 0 1-2 3.37c-.81 1.13-1.69 2.22-2.5 3.36s-.69 1.56.24 2.46 2.11 1.94 3 3a9.29 9.29 0 0 1 1.17 1.63z"
        id="aСлой_3"
        data-name="Слой 3"/>
    </g>
  </symbol>
  <symbol id="i_vk" viewBox="0 0 44 43.92">
    <g id="aСлой_2" data-name="Слой 2">
      <path
        class="acls-1"
        d="M22 0a22 22 0 1 0 22 22A22 22 0 0 0 22 0zm11.16 24.33a41.79 41.79 0 0 1 3 3 8.62 8.62 0 0 1 1.08 1.56c.42.81 0 1.7-.69 1.74h-4.47a3.49 3.49 0 0 1-2.87-1.17c-.62-.63-1.2-1.31-1.8-2a4.21 4.21 0 0 0-.81-.72.94.94 0 0 0-1.5.36 4.7 4.7 0 0 0-.47 2.1c0 1.06-.37 1.34-1.44 1.39a11.56 11.56 0 0 1-6.45-1.39 14.23 14.23 0 0 1-4.34-4.05 54.62 54.62 0 0 1-5.72-10.07c-.36-.8-.1-1.23.79-1.25h4.41a1.3 1.3 0 0 1 1.22.92 27.32 27.32 0 0 0 3 5.53 4.73 4.73 0 0 0 1.13 1.24.69.69 0 0 0 1.17-.34 3.77 3.77 0 0 0 .26-1.18 17.31 17.31 0 0 0-.07-4.07 1.7 1.7 0 0 0-1.45-1.55c-.43-.08-.37-.24-.16-.49a1.62 1.62 0 0 1 1.38-.69h5.09c.8.16 1 .52 1.09 1.32v5.65c0 .31.16 1.24.72 1.44s.75-.21 1-.5a17.56 17.56 0 0 0 2.87-4.4c.34-.7.64-1.42.93-2.14a1.1 1.1 0 0 1 1.15-.79h4.9a2.56 2.56 0 0 1 .43 0c.83.14 1.05.5.8 1.3a12.19 12.19 0 0 1-1.95 3.37c-.82 1.13-1.69 2.22-2.5 3.36s-.66 1.62.27 2.52z"
        id="aСлой_3"
        data-name="Слой 3"/>
    </g>
  </symbol>
  <symbol id="sort_desc" viewBox="0 0 13 10">
    <g id="aСлой_3" data-name="Слой 3">
      <path class="acls-1" d="M0 0h7v2H0zM0 4h10v2H0zM0 8h13v2H0z"/>
    </g>
  </symbol>
  <symbol id="view_block" viewBox="0 0 16 16">
    <g id="aСлой_3" data-name="Слой 3">
      <path class="acls-1" d="M7 7H0V0h7zM2 5h3V2H2zM16 7H9V0h7zm-5-2h3V2h-3zM7 16H0V9h7zm-5-2h3v-3H2zM16 16H9V9h7zm-5-2h3v-3h-3z"/>
    </g>
  </symbol>
  <symbol id="view_line" viewBox="0 0 16 16">
    <g id="aСлой_3" data-name="Слой 3">
      <path class="acls-1" d="M16 7H0V0h16zM2 5h12V2H2zM16 16H0V9h16zM2 14h12v-3H2z"/>
    </g>
  </symbol>
</svg>
